<svg version="1.1" id="Layer_1" xmlns="http://www.w3.org/2000/svg" xmlns:xlink="http://www.w3.org/1999/xlink" x="0px" y="0px"
	 width="100%" viewBox="0 0 64 64" enable-background="new 0 0 64 64" xml:space="preserve">
<path fill="#2D93BA" opacity="1.000000" stroke="none" 
	d="
M57.000000,65.000000 
	C42.979103,65.000000 28.958210,65.000000 14.413637,64.682045 
	C13.898261,63.935280 13.906561,63.506466 14.187277,62.873154 
	C19.669453,55.094532 24.879211,47.520409 30.394272,40.087765 
	C34.758331,43.954002 38.544498,48.061016 42.995754,51.235397 
	C45.087658,52.727230 48.481903,52.458992 48.338642,48.011932 
	C48.567913,47.981571 49.008118,47.839577 49.385937,47.908871 
	C50.287006,46.911263 51.528259,45.258739 51.214729,44.874332 
	C49.437393,42.695217 48.903954,37.259274 45.103119,39.423370 
	C39.213299,42.776871 36.135033,40.650829 33.380867,35.748470 
	C41.449608,24.331753 49.309189,13.167856 57.453316,2.171084 
	C57.867340,3.213752 57.996819,4.089294 58.099072,5.434115 
	C58.397968,11.641308 58.724091,17.379223 58.857784,23.488234 
	C58.783600,30.181555 58.901848,36.503777 58.660271,43.085236 
	C58.256630,49.219475 58.212811,55.094475 58.096611,61.321217 
	C57.682819,62.781971 57.341408,63.890987 57.000000,65.000000 
z"/>
<path fill="#27A2DB" opacity="1.000000" stroke="none" 
	d="
M57.168774,2.003959 
	C49.309189,13.167856 41.449608,24.331753 33.284714,35.377926 
	C31.347589,31.834326 29.427084,28.405731 33.311409,24.990782 
	C33.547066,24.951979 34.005089,24.816433 34.325935,24.794304 
	C34.963905,23.501066 35.916702,21.940489 35.491756,21.007301 
	C33.258636,16.103374 33.137676,16.158457 28.150948,17.495750 
	C22.483362,19.015631 21.775869,19.926588 23.712440,25.189480 
	C25.560072,30.210667 27.941950,35.035267 30.088970,39.946289 
	C24.879211,47.520409 19.669453,55.094532 14.152955,62.397881 
	C13.897478,41.751408 13.948739,21.375704 14.000000,1.000000 
	C28.020895,1.000000 42.041790,1.000000 56.548615,1.255179 
	C57.079292,1.674892 57.124031,1.839426 57.168774,2.003959 
z"/>
<path fill="#64798A" opacity="1.000000" stroke="none" 
	d="
M13.523338,1.000000 
	C13.948739,21.375704 13.897478,41.751408 13.880539,62.602383 
	C13.906561,63.506466 13.898261,63.935280 13.944981,64.682045 
	C9.688615,65.000000 5.377229,65.000000 1.059789,64.999985 
	C1.053735,43.666618 1.053735,22.333273 1.053735,1.000000 
	C5.087205,1.000000 9.066941,1.000000 13.523338,1.000000 
z"/>
<path fill="#E36252" opacity="1.000000" stroke="none" 
	d="
M59.020096,42.826000 
	C58.901848,36.503777 58.783600,30.181555 59.282364,23.442940 
	C61.599583,23.017700 63.299789,23.008850 65.000000,23.000000 
	C65.000000,29.021152 65.000000,35.042305 64.644051,41.673744 
	C62.532101,42.464687 60.776096,42.645344 59.020096,42.826000 
z"/>
<path fill="#FCD462" opacity="1.000000" stroke="none" 
	d="
M58.660271,43.085236 
	C60.776096,42.645344 62.532101,42.464687 64.644051,42.142014 
	C65.000000,47.688042 65.000000,53.376080 64.639282,59.672874 
	C62.242046,60.510914 60.205521,60.740196 58.168995,60.969475 
	C58.212811,55.094475 58.256630,49.219475 58.660271,43.085236 
z"/>
<path fill="#44C4A1" opacity="1.000000" stroke="none" 
	d="
M65.000000,22.532394 
	C63.299789,23.008850 61.599583,23.017700 59.474792,23.071842 
	C58.724091,17.379223 58.397968,11.641308 58.495300,5.447370 
	C60.945835,5.327564 62.972919,5.663782 65.000000,6.000000 
	C65.000000,11.354930 65.000000,16.709860 65.000000,22.532394 
z"/>
<path fill="#FFFFFF" opacity="1.000000" stroke="none" 
	d="
M65.000000,5.500038 
	C62.972919,5.663782 60.945835,5.327564 58.522526,4.978091 
	C57.996819,4.089294 57.867340,3.213752 57.453316,2.171084 
	C57.124031,1.839426 57.079292,1.674892 57.017273,1.255179 
	C59.560017,1.000000 62.120029,1.000000 65.000000,1.000000 
	C65.000000,2.326929 65.000000,3.663502 65.000000,5.500038 
z"/>
<path fill="#FFFFFF" opacity="1.000000" stroke="none" 
	d="
M58.096611,61.321220 
	C60.205521,60.740196 62.242046,60.510914 64.639282,60.140816 
	C65.000000,61.601406 65.000000,63.202808 65.000000,65.000000 
	C62.664818,65.000000 60.327145,65.000000 57.494736,65.000000 
	C57.341408,63.890987 57.682819,62.781971 58.096611,61.321220 
z"/>
<path fill="#FDFEFF" opacity="1.000000" stroke="none" 
	d="
M30.394272,40.087765 
	C27.941950,35.035267 25.560072,30.210667 23.712440,25.189480 
	C21.775869,19.926588 22.483362,19.015631 28.150948,17.495750 
	C33.137676,16.158457 33.258636,16.103374 35.491756,21.007301 
	C35.916702,21.940489 34.963905,23.501066 34.268974,24.492231 
	C33.266220,23.469175 32.641266,22.726067 31.978760,21.736742 
	C31.700291,21.023754 31.459370,20.556980 31.218451,20.090206 
	C30.841801,20.388269 30.465151,20.686333 30.088499,20.984396 
	C30.720215,21.327332 31.351929,21.670267 32.028381,22.335922 
	C32.407330,23.448957 32.741539,24.239271 33.075748,25.029585 
	C29.427084,28.405731 31.347589,31.834326 33.075554,35.630745 
	C36.135033,40.650829 39.213299,42.776871 45.103119,39.423370 
	C48.903954,37.259274 49.437393,42.695217 51.214729,44.874332 
	C51.528259,45.258739 50.287006,46.911263 49.331192,47.603477 
	C48.269901,46.481525 47.641174,45.734264 46.976868,44.737911 
	C46.704414,44.015896 46.467541,43.542969 46.230667,43.070042 
	C45.719814,43.516823 45.208965,43.963608 44.698116,44.410389 
	C45.461254,44.610283 46.224392,44.810173 47.032150,45.335640 
	C47.420975,46.454906 47.765171,47.248600 48.109371,48.042297 
	C48.481903,52.458992 45.087658,52.727230 42.995754,51.235397 
	C38.544498,48.061016 34.758331,43.954002 30.394272,40.087765 
z"/>
<path fill="#F5FAFC" opacity="1.000000" stroke="none" 
	d="
M47.012447,44.987003 
	C47.641174,45.734264 48.269901,46.481525 48.953373,47.534180 
	C49.008118,47.839577 48.567913,47.981571 48.338642,48.011932 
	C47.765171,47.248600 47.420975,46.454906 47.038559,45.330353 
	C47.000343,44.999493 47.012447,44.987003 47.012447,44.987003 
z"/>
<path fill="#F8FCFE" opacity="1.000000" stroke="none" 
	d="
M32.016312,21.982956 
	C32.641266,22.726067 33.266220,23.469175 33.948132,24.514359 
	C34.005089,24.816433 33.547066,24.951979 33.311409,24.990782 
	C32.741539,24.239271 32.407330,23.448957 32.036827,22.328865 
	C32.000530,21.999086 32.016312,21.982956 32.016312,21.982956 
z"/>
<path fill="#F8FCFE" opacity="1.000000" stroke="none" 
	d="
M31.992088,22.006145 
	C31.351929,21.670267 30.720215,21.327332 30.088499,20.984396 
	C30.465151,20.686333 30.841801,20.388269 31.218451,20.090206 
	C31.459370,20.556980 31.700291,21.023754 31.978760,21.736742 
	C32.016312,21.982956 32.000530,21.999086 31.992088,22.006145 
z"/>
<path fill="#F5FAFC" opacity="1.000000" stroke="none" 
	d="
M46.993935,45.004780 
	C46.224392,44.810173 45.461254,44.610283 44.698116,44.410389 
	C45.208965,43.963608 45.719814,43.516823 46.230667,43.070042 
	C46.467541,43.542969 46.704414,44.015896 46.976868,44.737911 
	C47.012447,44.987003 47.000343,44.999493 46.993935,45.004780 
z"/>
</svg>